<svg width="19" height="22" viewBox="0 0 19 22" fill="none" xmlns="http://www.w3.org/2000/svg">
<path d="M18.3823 0.564979L15.4992 0.145142C15.4109 0.145142 15.3225 0.145144 15.3225 0.23331L14.1019 1.7993C14.0322 1.90146 14.0009 2.02486 14.0135 2.14777C14.0135 2.23593 13.9251 2.41226 13.8409 2.3241L12.8771 2.0638C12.7045 2.0638 12.5277 2.0638 12.4562 2.23593L8.52505 7.27398C8.43666 7.36214 8.34827 7.36215 8.1757 7.36215L6.68995 6.66522C6.6269 6.62571 6.55396 6.60475 6.47951 6.60475C6.40505 6.60475 6.33211 6.62571 6.26906 6.66522L5.44411 7.19421C5.38143 7.23469 5.30834 7.25623 5.23367 7.25623C5.15899 7.25623 5.08591 7.23469 5.02322 7.19421L4.67389 7.02208C4.61701 6.99644 4.55541 6.98287 4.49301 6.98224C4.4306 6.98161 4.36874 6.99392 4.31136 7.0184C4.25398 7.04287 4.20232 7.07898 4.15966 7.12442C4.11701 7.16986 4.0843 7.22365 4.06359 7.28238L3.79842 8.4999C3.76694 8.62919 3.77542 8.76496 3.82275 8.88935C3.87008 9.01374 3.95404 9.12093 4.06359 9.19683L4.76227 9.61667L6.59315 10.7502L7.46861 11.2708C7.5915 11.3428 7.73432 11.3735 7.87602 11.3584C8.01773 11.3433 8.15082 11.2831 8.25567 11.1869L9.73722 9.87697C9.8648 9.80451 10.0124 9.77507 10.1581 9.793L10.579 10.0533C10.7516 10.1415 10.9283 10.1415 10.9999 9.96514L11.7828 9.26821C11.8366 9.21413 11.9052 9.17697 11.98 9.1613C12.0548 9.14563 12.1325 9.15215 12.2036 9.18004L13.3401 9.70484C13.4277 9.7335 13.521 9.74044 13.6119 9.72508C13.7029 9.70972 13.7887 9.67251 13.862 9.61667L14.3881 8.91974L18.3192 3.88169C18.4918 3.61719 18.4034 3.26873 18.054 3.26873L17.2291 3.084C17.0523 3.084 16.9681 2.8237 17.0523 2.66417L18.4497 1.01001C18.6433 0.833674 18.5549 0.564979 18.3823 0.564979Z" fill="url(#paint0_linear_61486:83)"/>
<path d="M5.28004 10.7671C5.19165 10.6789 5.10748 10.7671 5.10748 10.8553L5.52838 11.9846V12.2491L5.17903 13.727C5.17304 13.7748 5.17788 13.8234 5.19317 13.8692C5.20846 13.915 5.23383 13.9567 5.26741 13.9915L6.31544 14.7724C6.36379 14.8146 6.42585 14.8379 6.4901 14.8379C6.55436 14.8379 6.61643 14.8146 6.66478 14.7724L7.80119 13.8151C7.83518 13.7817 7.87632 13.7564 7.92152 13.7411C7.96672 13.7259 8.01479 13.721 8.06214 13.727L9.28694 13.5548C9.37112 13.5548 9.37112 13.4667 9.28694 13.3785L5.28004 10.7671Z" fill="url(#paint1_linear_61486:83)"/>
<path d="M4.93052 14.5119C4.91574 14.4911 4.89618 14.4741 4.87348 14.4624C4.85078 14.4507 4.8256 14.4446 4.80004 14.4446C4.77449 14.4446 4.74931 14.4507 4.72661 14.4624C4.70391 14.4741 4.68435 14.4911 4.66957 14.5119L3.79411 14.9317C3.78269 14.9317 3.77139 14.934 3.76089 14.9385C3.75039 14.9429 3.74093 14.9495 3.73306 14.9577C3.72518 14.966 3.71906 14.9758 3.71509 14.9864C3.71111 14.9971 3.70936 15.0085 3.70993 15.0199L1.78645 19.722H1.87484L2.29573 19.5499V19.6339L0.898376 21.901C0.898376 21.9892 0.898369 21.9892 0.982547 21.9892L5.87332 17.0225C5.9617 17.0225 5.96171 16.9343 5.96171 16.8461L6.0501 15.5405C6.0501 15.4523 6.0501 15.3683 5.96171 15.3683L4.93052 14.5119Z" fill="url(#paint2_linear_61486:83)"/>
<defs>
<linearGradient id="paint0_linear_61486:83" x1="3.77975" y1="0.411214" x2="20.3663" y2="5.9802" gradientUnits="userSpaceOnUse">
<stop stop-color="#00FFE0"/>
<stop offset="1" stop-color="#0094FF"/>
</linearGradient>
<linearGradient id="paint1_linear_61486:83" x1="5.10748" y1="10.828" x2="10.0623" y2="12.1322" gradientUnits="userSpaceOnUse">
<stop stop-color="#00FFE0"/>
<stop offset="1" stop-color="#0094FF"/>
</linearGradient>
<linearGradient id="paint2_linear_61486:83" x1="0.898376" y1="14.6235" x2="7.14267" y2="15.7101" gradientUnits="userSpaceOnUse">
<stop stop-color="#00FFE0"/>
<stop offset="1" stop-color="#0094FF"/>
</linearGradient>
</defs>
</svg>
